<svg width="16" height="9" viewBox="0 0 16 9" fill="none" xmlns="http://www.w3.org/2000/svg">
<path fill-rule="evenodd" clip-rule="evenodd" d="M1 8L8 1L15 8H8H1Z" fill="white"/>
<path d="M8 1L8.35355 0.646447C8.15829 0.451184 7.84171 0.451184 7.64645 0.646447L8 1ZM1 8L0.646447 7.64645C0.503448 7.78945 0.46067 8.0045 0.53806 8.19134C0.615451 8.37818 0.797769 8.5 1 8.5V8ZM15 8V8.5C15.2022 8.5 15.3845 8.37818 15.4619 8.19134C15.5393 8.0045 15.4966 7.78945 15.3536 7.64645L15 8ZM7.64645 0.646447L0.646447 7.64645L1.35355 8.35355L8.35355 1.35355L7.64645 0.646447ZM7.64645 1.35355L14.6464 8.35355L15.3536 7.64645L8.35355 0.646447L7.64645 1.35355ZM15 7.5H8V8.5H15V7.5ZM1 8.5H8V7.5H1V8.5Z" fill="white"/>
</svg>
