<svg width="131" height="126" viewBox="0 0 131 126" fill="none" xmlns="http://www.w3.org/2000/svg">
<circle cx="8" cy="8" r="8" fill="#6A6D9E" fill-opacity="0.1"/>
<circle cx="31" cy="8" r="8" fill="#6A6D9E" fill-opacity="0.1"/>
<circle cx="54" cy="8" r="8" fill="#6A6D9E" fill-opacity="0.1"/>
<circle cx="77" cy="8" r="8" fill="#6A6D9E" fill-opacity="0.1"/>
<circle cx="100" cy="8" r="8" fill="#6A6D9E" fill-opacity="0.1"/>
<circle cx="123" cy="8" r="8" fill="#6A6D9E" fill-opacity="0.1"/>
<circle cx="8" cy="30" r="8" fill="#6A6D9E" fill-opacity="0.1"/>
<circle cx="31" cy="30" r="8" fill="#6A6D9E" fill-opacity="0.1"/>
<circle cx="54" cy="30" r="8" fill="#6A6D9E" fill-opacity="0.1"/>
<circle cx="77" cy="30" r="8" fill="#6A6D9E" fill-opacity="0.1"/>
<circle cx="100" cy="30" r="8" fill="#6A6D9E" fill-opacity="0.1"/>
<circle cx="123" cy="30" r="8" fill="#6A6D9E" fill-opacity="0.1"/>
<circle cx="8" cy="52" r="8" fill="#6A6D9E" fill-opacity="0.1"/>
<circle cx="31" cy="52" r="8" fill="#6A6D9E" fill-opacity="0.1"/>
<circle cx="54" cy="52" r="8" fill="#6A6D9E" fill-opacity="0.1"/>
<circle cx="77" cy="52" r="8" fill="#6A6D9E" fill-opacity="0.1"/>
<circle cx="100" cy="52" r="8" fill="#6A6D9E" fill-opacity="0.1"/>
<circle cx="123" cy="52" r="8" fill="#6A6D9E" fill-opacity="0.1"/>
<circle cx="8" cy="74" r="8" fill="#6A6D9E" fill-opacity="0.1"/>
<circle cx="31" cy="74" r="8" fill="#6A6D9E" fill-opacity="0.1"/>
<circle cx="54" cy="74" r="8" fill="#6A6D9E" fill-opacity="0.1"/>
<circle cx="77" cy="74" r="8" fill="#6A6D9E" fill-opacity="0.1"/>
<circle cx="100" cy="74" r="8" fill="#6A6D9E" fill-opacity="0.1"/>
<circle cx="123" cy="74" r="8" fill="#6A6D9E" fill-opacity="0.1"/>
<circle cx="8" cy="96" r="8" fill="#6A6D9E" fill-opacity="0.1"/>
<circle cx="31" cy="96" r="8" fill="#6A6D9E" fill-opacity="0.1"/>
<circle cx="54" cy="96" r="8" fill="#6A6D9E" fill-opacity="0.1"/>
<circle cx="77" cy="96" r="8" fill="#6A6D9E" fill-opacity="0.1"/>
<circle cx="100" cy="96" r="8" fill="#6A6D9E" fill-opacity="0.1"/>
<circle cx="123" cy="96" r="8" fill="#6A6D9E" fill-opacity="0.1"/>
<circle cx="8" cy="118" r="8" fill="#6A6D9E" fill-opacity="0.1"/>
<circle cx="31" cy="118" r="8" fill="#6A6D9E" fill-opacity="0.1"/>
<circle cx="54" cy="118" r="8" fill="#6A6D9E" fill-opacity="0.1"/>
<circle cx="77" cy="118" r="8" fill="#6A6D9E" fill-opacity="0.1"/>
<circle cx="100" cy="118" r="8" fill="#6A6D9E" fill-opacity="0.1"/>
<circle cx="123" cy="118" r="8" fill="#6A6D9E" fill-opacity="0.1"/>
</svg>
