<svg width="34" height="34" viewBox="0 0 34 34" fill="none" xmlns="http://www.w3.org/2000/svg">
<path fill-rule="evenodd" clip-rule="evenodd" d="M19.2445 11.8768C18.0632 13.0385 16.1637 13.0225 15.002 11.8412L4.83527 1.50245C3.86719 0.517989 2.28433 0.504713 1.29986 1.4728V1.4728C0.3154 2.44089 0.302126 4.02375 1.27021 5.00821L11.437 15.3469C12.5987 16.5283 12.5827 18.4277 11.4014 19.5894L1.7757 29.055C0.79123 30.0231 0.777954 31.6059 1.74604 32.5904V32.5904C2.71413 33.5749 4.29699 33.5881 5.28145 32.6201L14.9071 23.1545C16.0885 21.9928 17.9879 22.0087 19.1496 23.1901L28.3417 32.5376C29.3097 33.5221 30.8926 33.5354 31.8771 32.5673V32.5673C32.8615 31.5992 32.8748 30.0163 31.9067 29.0319L22.7147 19.6843C21.553 18.503 21.5689 16.6035 22.7503 15.4418L32.8109 5.54861C33.7953 4.58052 33.8086 2.99766 32.8405 2.0132V2.0132C31.8724 1.02873 30.2896 1.01546 29.3051 1.98354L19.2445 11.8768Z" fill="black"/>
</svg>
