<svg width="92" height="73" viewBox="0 0 92 73" fill="none" xmlns="http://www.w3.org/2000/svg">
<path d="M0.678132 72.0933C-0.671122 70.4669 0.734351 69.5135 7.76171 67.2703C11.6408 66.0365 16.2508 64.8027 17.9936 64.4662C19.7363 64.1858 24.1776 63.4007 27.8881 62.7838C41.8304 60.4284 55.8289 60.7088 72.301 63.6811C79.8906 65.0831 90.2911 67.9993 91.4155 69.0088C92.2025 69.7939 91.4717 69.6818 84.107 67.8872C72.807 65.0831 66.7916 64.4662 52.0622 64.4662C42.8423 64.4662 36.8831 64.7466 32.7791 65.3635C25.4145 66.4291 11.8095 69.6818 6.97465 71.4764C2.75823 73.1027 1.57763 73.2149 0.678132 72.0933V72.0933Z" fill="#1D8AD5"/>
<path d="M22.21 58.9142C20.9169 58.3534 18.0498 55.1568 18.0498 54.3156C18.0498 53.9791 18.5557 53.923 19.1742 54.0912C19.7926 54.3156 22.7159 54.7642 25.6955 55.1007L31.0363 55.7737L29.406 57.3439C27.607 59.0824 24.2901 59.7554 22.21 58.9142V58.9142Z" fill="#1D8AD5"/>
<path d="M59.7642 57.0074C59.0896 56.2784 58.5274 55.5493 58.5274 55.3811C58.5274 55.2129 59.708 54.9324 61.1135 54.7081C62.9125 54.4838 64.1493 54.652 65.3861 55.2689C67.4662 56.3345 70.4458 55.998 72.2448 54.5399C73.2005 53.6987 73.2005 53.8108 72.0762 55.0446C70.1647 57.2318 67.5224 58.2973 64.0369 58.2973C61.5632 58.2973 60.7199 58.073 59.7642 57.0074V57.0074Z" fill="#1D8AD5"/>
<path d="M48.408 56.0541C47.7334 55.6615 47.9582 55.4933 49.2513 55.4933C50.207 55.4933 51.5562 55.325 52.3433 55.1568C53.6926 54.8764 53.6926 54.8764 52.6806 55.7176C51.4438 56.7271 49.6448 56.8392 48.408 56.0541Z" fill="#1D8AD5"/>
<path d="M82.6453 54.9885L81.3523 53.9791L83.601 53.5304C84.7816 53.25 86.2433 53.1379 86.8055 53.1939C88.3234 53.4183 89.4478 52.1845 89.504 50.2216C89.5602 49.1561 89.6727 48.8757 89.8413 49.5487C90.01 50.1095 89.8413 51.6798 89.4478 52.9696C88.8856 54.9885 88.4921 55.4372 87.0866 55.7176C84.5567 56.2223 84.0508 56.1662 82.6453 54.9885V54.9885Z" fill="#1D8AD5"/>
<path d="M23.3906 52.9135C20.2985 52.4088 17.4314 51.6797 16.9816 51.2872C15.9697 50.2777 15.3513 46.5203 15.7448 43.8845L16.1383 41.7534L16.4756 43.8284C17.0378 46.9128 18.5557 49.7169 19.905 50.1655C20.5796 50.3899 26.595 50.6703 33.2851 50.8385C52.4557 51.2872 57.6279 50.1655 60.0453 45.0622C61.2821 42.5946 60.6637 42.146 58.0776 43.548C56.9532 44.221 55.098 44.8939 54.0299 45.1182C52.1746 45.5108 52.1184 45.5108 52.9055 44.5014C55.098 41.5851 56.8408 40.127 59.7642 38.6128C63.4746 36.7622 64.3179 35.0797 62.8 32.7804C62.294 32.0514 61.9005 31.3223 61.9005 31.2101C61.9005 31.098 63.0249 30.5372 64.3741 30.0324C67.5786 28.7987 68.5906 27.621 69.4901 23.9757L70.2209 21.0034L70.2771 26.0507C70.3333 28.8547 70.5582 31.3784 70.7831 31.7149C71.0642 32.1635 72.6945 32.1635 76.8547 31.6588C80.003 31.2662 82.8139 30.8176 83.2075 30.5933C83.5448 30.3689 83.8259 30.425 83.8259 30.7054C83.8259 30.9858 82.6453 31.5466 81.1836 31.9392C72.5821 34.1264 71.1204 34.6872 69.7712 36.5378C66.6791 40.6318 64.9926 44.3331 63.8682 49.6608C63.5309 51.3993 63.4746 51.3993 57.7965 52.4088C49.8134 53.8108 31.0363 54.0912 23.3906 52.9135V52.9135Z" fill="#1D8AD5"/>
<path d="M76.2926 52.1284C76.9672 51.848 78.71 51.5115 80.2279 51.3432L82.9826 51.0628L80.1717 51.7919C78.6537 52.2405 76.8547 52.577 76.2363 52.577C75.1682 52.6331 75.1682 52.577 76.2926 52.1284Z" fill="#1D8AD5"/>
<path d="M74.0438 50.8385C74.5498 48.5392 72.8632 44.5574 70.4458 42.5946C68.0846 40.6318 68.2533 39.9588 70.7269 41.4169C73.7065 43.2676 75.7866 49.2682 74.2687 51.5676C73.8189 52.1845 73.7627 52.0162 74.0438 50.8385Z" fill="#1D8AD5"/>
<path d="M84.7816 50.1095C85.0627 49.3243 84.5567 49.2122 80.6776 49.3804L76.2926 49.6047L75.3368 45.9595C74.4936 42.9311 73.9876 41.9777 71.9637 40.2953L69.5463 38.2764L70.7831 37.2108C71.7388 36.4257 73.0881 36.1453 76.4612 36.0331C78.9348 35.977 81.9707 35.6406 83.2637 35.3041C85.2876 34.7433 85.7936 34.7993 86.6931 35.6406C87.2553 36.1453 87.7612 36.8183 87.7612 37.0987C87.7612 37.3791 88.211 38.052 88.7169 38.5568C89.5602 39.4541 89.5602 39.5102 88.7169 39.6784C87.705 39.9027 86.2433 44.0527 85.6811 48.371C85.5125 49.8291 85.1189 51.0068 84.8941 51.0068C84.613 51.0068 84.5567 50.6142 84.7816 50.1095V50.1095Z" fill="#1D8AD5"/>
<path d="M89.5602 45.9595C89.5602 44.8939 89.6727 44.4453 89.8413 45.0061C89.9538 45.5108 89.9538 46.4081 89.8413 46.9689C89.6727 47.4737 89.5602 47.025 89.5602 45.9595Z" fill="#1D8AD5"/>
<path d="M26.4826 45.9595C19.3428 45.3426 18.7806 45.1182 18.4433 42.7068C18.3309 41.5291 18.3309 40.4635 18.5557 40.2392C18.7244 40.0149 22.3224 40.127 26.4826 40.4635C33.7348 41.0243 46.7776 40.5196 52.3433 39.4541L54.311 39.0615L52.8493 40.6878C52.006 41.5851 50.9378 43.0993 50.4881 44.0527L49.5886 45.7912L43.5732 46.1277C36.7144 46.5764 33.2851 46.5203 26.4826 45.9595V45.9595Z" fill="#1D8AD5"/>
<path d="M24.9647 37.7155C22.7722 37.4912 22.5473 37.323 22.5473 35.977C22.5473 33.3973 23.8403 31.8831 27.5508 29.9203C29.5747 28.8547 32.7229 26.4993 34.5781 24.7047C37.6702 21.7885 40.8747 19.6013 42.0553 19.6013C42.2801 19.6013 41.6617 20.1061 40.6498 20.723C38.4573 22.0689 30.0244 30.0324 30.4179 30.425C30.5866 30.5372 34.3533 30.4811 38.8508 30.2007C43.3483 29.9763 49.9259 29.752 53.4677 29.752H59.9329L55.9976 31.3223C53.8612 32.2196 50.9941 33.902 49.6448 35.0236C47.4523 36.9304 46.7777 37.2108 42.8985 37.6034C38.5697 38.052 29.406 38.1081 24.9647 37.7155V37.7155Z" fill="#1D8AD5"/>
<path d="M79.8906 33.7338C81.2961 32.7804 84.9503 32.2757 84.9503 33.0047C84.9503 33.3412 84.5005 33.6216 83.8821 33.6216C83.3199 33.6216 81.9707 33.7899 80.9587 33.9581C79.6095 34.1824 79.2722 34.1264 79.8906 33.7338V33.7338Z" fill="#1D8AD5"/>
<path d="M38.0075 26.3311C37.4453 25.4338 38.7946 23.527 39.9752 23.527C41.3244 23.527 41.3806 23.9757 40.2 25.6581C39.3005 27.0041 38.5697 27.2284 38.0075 26.3311Z" fill="#1D8AD5"/>
<path d="M52.1746 26.4993C50.9378 25.2656 52.6244 22.4054 54.6483 22.4054C56.0537 22.4054 56.0537 24.3122 54.5921 25.7703C53.4115 26.948 52.7931 27.1162 52.1746 26.4993V26.4993Z" fill="#1D8AD5"/>
<path d="M79.2722 23.7514C77.5294 21.7885 73.2005 19.0406 71.9637 19.0406C71.4015 19.0406 70.8393 19.321 70.7269 19.6014C70.5582 19.9379 70.502 19.8818 70.5582 19.4892C70.8955 18.0311 74.1562 18.8723 76.9672 21.0595C78.5413 22.2933 80.0592 23.6953 80.3965 24.2561C81.296 25.6581 80.8463 25.4338 79.2722 23.7514Z" fill="#1D8AD5"/>
<path d="M47.0587 19.9379C46.1592 19.5453 45.6533 19.0406 45.9344 18.9284C46.2155 18.7602 49.5886 18.4798 53.4677 18.3115C58.0214 18.0872 59.202 18.1433 56.8408 18.4237C54.8169 18.648 52.2309 19.2649 50.9941 19.7696C49.8135 20.3304 48.8015 20.723 48.7453 20.6669C48.7453 20.6669 47.9582 20.3304 47.0587 19.9379V19.9379Z" fill="#1D8AD5"/>
<path d="M50.994 10.9649C52.006 8.16082 53.299 4.62771 53.9174 3.05744L55.0418 0.253388L63.2498 0.0851447C71.3453 -0.0830986 71.4577 -0.0270175 71.7388 1.20677C71.9075 1.93582 72.5259 4.9642 73.1443 7.9365C73.7065 10.9088 74.3811 13.9933 74.606 14.7784C74.7746 15.5635 74.7184 16.2365 74.4373 16.2365C74.1562 16.2365 73.313 13.2081 72.5821 9.45069C71.8513 5.74934 71.0642 2.60879 70.8955 2.49663C70.7269 2.38447 69.4338 5.18852 68.0284 8.72163L65.5547 15.1149L60.2139 15.171C57.2906 15.171 53.5801 15.3953 52.006 15.6196L49.1388 16.0122L50.994 10.9649V10.9649Z" fill="#1D8AD5"/>
</svg>
