<svg width="73" height="58" viewBox="0 0 73 58" fill="none" xmlns="http://www.w3.org/2000/svg">
<path d="M0.366389 57.4102C-0.708306 56.1148 0.411168 55.3554 6.00854 53.5687C9.09828 52.5859 12.7702 51.6032 14.1583 51.3352C15.5465 51.1119 19.084 50.4865 22.0394 49.9951C33.1446 48.119 44.2945 48.3424 57.4148 50.7098C63.4599 51.8266 71.744 54.1494 72.6396 54.9534C73.2665 55.5788 72.6844 55.4894 66.8184 54.06C57.8178 51.8266 53.0264 51.3352 41.2943 51.3352C33.9506 51.3352 29.204 51.5586 25.9352 52.0499C20.0691 52.8986 9.23262 55.4894 5.38163 56.9189C2.02321 58.2143 1.08285 58.3036 0.366389 57.4102Z" fill="white"/>
<path d="M17.5168 46.9133C16.4869 46.4666 14.2031 43.9204 14.2031 43.2504C14.2031 42.9824 14.6061 42.9377 15.0987 43.0717C15.5913 43.2504 17.9198 43.6077 20.2931 43.8758L24.5471 44.4118L23.2485 45.6625C21.8155 47.0473 19.1736 47.5833 17.5168 46.9133Z" fill="white"/>
<path d="M47.4291 45.3946C46.8918 44.8139 46.444 44.2332 46.444 44.0991C46.444 43.9651 47.3843 43.7418 48.5038 43.5631C49.9367 43.3844 50.9219 43.5184 51.907 44.0098C53.5638 44.8585 55.9371 44.5905 57.37 43.4291C58.1313 42.7591 58.1313 42.8484 57.2357 43.8311C55.7132 45.5732 53.6086 46.4219 50.8323 46.4219C48.862 46.4219 48.1903 46.2433 47.4291 45.3946Z" fill="white"/>
<path d="M38.3837 44.6349C37.8464 44.3222 38.0255 44.1882 39.0554 44.1882C39.8166 44.1882 40.8913 44.0542 41.5182 43.9202C42.5929 43.6969 42.5929 43.6969 41.7869 44.3669C40.8018 45.1709 39.3689 45.2603 38.3837 44.6349Z" fill="white"/>
<path d="M65.6541 43.7865L64.6241 42.9824L66.4153 42.6251C67.3557 42.4017 68.5199 42.3124 68.9677 42.357C70.1767 42.5357 71.0723 41.553 71.1171 39.9896C71.1619 39.1409 71.2514 38.9175 71.3858 39.4535C71.5201 39.9002 71.3858 41.151 71.0723 42.1784C70.6245 43.7865 70.3111 44.1438 69.1916 44.3672C67.1765 44.7692 66.7735 44.7245 65.6541 43.7865Z" fill="white"/>
<path d="M18.4571 42.1336C15.9942 41.7315 13.7105 41.1508 13.3523 40.8381C12.5463 40.0341 12.0537 37.0413 12.3671 34.9418L12.6806 33.2444L12.9493 34.8971C13.3971 37.354 14.6061 39.5874 15.6808 39.9448C16.2181 40.1234 21.0095 40.3468 26.3382 40.4808C41.6078 40.8381 45.7275 39.9448 47.653 35.8799C48.6381 33.9144 48.1455 33.5571 46.0857 34.6738C45.1901 35.2098 43.7124 35.7459 42.8616 35.9245C41.3839 36.2372 41.3391 36.2372 41.966 35.4332C43.7124 33.1104 45.1006 31.949 47.4291 30.7429C50.3845 29.2688 51.0562 27.9288 49.8471 26.0973C49.4441 25.5166 49.1307 24.9359 49.1307 24.8466C49.1307 24.7572 50.0262 24.3106 51.1009 23.9085C53.6533 22.9258 54.4594 21.9878 55.1758 19.0843L55.7579 16.7168L55.8027 20.737C55.8475 22.9705 56.0266 24.9806 56.2057 25.2486C56.4296 25.606 57.7282 25.606 61.0419 25.2039C63.5495 24.8913 65.7884 24.5339 66.1019 24.3552C66.3706 24.1765 66.5945 24.2212 66.5945 24.4446C66.5945 24.6679 65.6541 25.1146 64.4898 25.4273C57.6387 27.1694 56.4744 27.6161 55.3997 29.0902C52.9369 32.351 51.5935 35.2992 50.6979 39.5427C50.4293 40.9275 50.3845 40.9275 45.8618 41.7315C39.5032 42.8483 24.547 43.0716 18.4571 42.1336Z" fill="white"/>
<path d="M60.5941 41.5079C61.1314 41.2846 62.5196 41.0165 63.7286 40.8825L65.9228 40.6592L63.6838 41.2399C62.4748 41.5972 61.0419 41.8653 60.5493 41.8653C59.6985 41.9099 59.6985 41.8653 60.5941 41.5079Z" fill="white"/>
<path d="M58.8029 40.481C59.2059 38.6495 57.8625 35.478 55.937 33.9146C54.0563 32.3512 54.1907 31.8152 56.1609 32.9765C58.5342 34.4506 60.191 39.2302 58.982 41.0617C58.6238 41.553 58.579 41.419 58.8029 40.481Z" fill="white"/>
<path d="M67.3557 39.9001C67.5796 39.2748 67.1766 39.1854 64.0868 39.3194L60.5941 39.4981L59.8328 36.5946C59.1611 34.1825 58.7581 33.4231 57.1461 32.083L55.2206 30.4749L56.2057 29.6262C56.967 29.0009 58.0417 28.7775 60.7284 28.6882C62.6987 28.6435 65.1167 28.3755 66.1466 28.1075C67.7587 27.6608 68.1617 27.7055 68.8782 28.3755C69.326 28.7775 69.729 29.3135 69.729 29.5369C69.729 29.7602 70.0872 30.2963 70.4902 30.6983C71.1619 31.413 71.1619 31.4577 70.4902 31.5917C69.6842 31.7703 68.5199 35.0759 68.0721 38.5154C67.9378 39.6768 67.6243 40.6148 67.4452 40.6148C67.2213 40.6148 67.1766 40.3022 67.3557 39.9001Z" fill="white"/>
<path d="M71.1619 36.5949C71.1619 35.7462 71.2515 35.3888 71.3858 35.8355C71.4754 36.2375 71.4754 36.9523 71.3858 37.3989C71.2515 37.801 71.1619 37.4436 71.1619 36.5949Z" fill="white"/>
<path d="M20.9199 36.5944C15.233 36.103 14.7852 35.9244 14.5165 34.0036C14.427 33.0655 14.427 32.2168 14.6061 32.0382C14.7404 31.8595 17.6063 31.9488 20.9199 32.2168C26.6964 32.6635 37.0851 32.2615 41.5182 31.4128L43.0855 31.1001L41.9212 32.3955C41.2496 33.1102 40.3988 34.3163 40.0405 35.0757L39.3241 36.4604L34.5327 36.7284C29.0697 37.0858 26.3382 37.0411 20.9199 36.5944Z" fill="white"/>
<path d="M19.7109 30.0282C17.9645 29.8496 17.7854 29.7156 17.7854 28.6435C17.7854 26.5887 18.8153 25.3826 21.7707 23.8192C23.3828 22.9705 25.8904 21.0944 27.3681 19.665C29.8309 17.3422 32.3833 15.6001 33.3237 15.6001C33.5028 15.6001 33.0102 16.0021 32.2042 16.4935C30.4578 17.5655 23.741 23.9086 24.0545 24.2212C24.1888 24.3106 27.189 24.2659 30.7713 24.0426C34.3536 23.8639 39.5928 23.6852 42.4138 23.6852H47.5634L44.4289 24.936C42.7273 25.6507 40.4435 26.9907 39.3689 27.8841C37.6225 29.4029 37.0851 29.6262 33.9954 29.9389C30.5474 30.2963 23.2484 30.3409 19.7109 30.0282Z" fill="white"/>
<path d="M63.4599 26.857C64.5794 26.0976 67.49 25.6956 67.49 26.2763C67.49 26.5443 67.1318 26.7677 66.6392 26.7677C66.1914 26.7677 65.1167 26.9017 64.3107 27.0357C63.236 27.2144 62.9674 27.1697 63.4599 26.857Z" fill="white"/>
<path d="M30.0996 20.9605C29.6518 20.2458 30.7265 18.7271 31.6669 18.7271C32.7416 18.7271 32.7864 19.0844 31.846 20.4245C31.1295 21.4965 30.5474 21.6752 30.0996 20.9605Z" fill="white"/>
<path d="M41.3839 21.0943C40.3988 20.1116 41.7422 17.8335 43.3542 17.8335C44.4737 17.8335 44.4737 19.3522 43.3094 20.5136C42.3691 21.4517 41.8765 21.5857 41.3839 21.0943Z" fill="white"/>
<path d="M62.9674 18.9058C61.5792 17.3424 58.1312 15.1536 57.1461 15.1536C56.6983 15.1536 56.2505 15.377 56.161 15.6003C56.0266 15.8683 55.9818 15.8237 56.0266 15.511C56.2953 14.3496 58.8925 15.0196 61.1314 16.7617C62.3852 17.7444 63.5943 18.8612 63.8629 19.3079C64.5794 20.4246 64.2212 20.2459 62.9674 18.9058Z" fill="white"/>
<path d="M37.309 15.8681C36.5926 15.5554 36.1896 15.1534 36.4135 15.064C36.6373 14.93 39.3241 14.7067 42.4138 14.5727C46.0409 14.394 46.9813 14.4386 45.1006 14.662C43.4885 14.8407 41.4287 15.332 40.4436 15.7341C39.5032 16.1807 38.6972 16.4934 38.6524 16.4488C38.6524 16.4488 38.0255 16.1807 37.309 15.8681Z" fill="white"/>
<path d="M40.4436 8.72097C41.2496 6.48751 42.2795 3.67336 42.7721 2.42262L43.6677 0.189162L50.2054 0.0551544C56.6536 -0.0788531 56.7431 -0.0341839 56.967 0.948538C57.1014 1.52924 57.5939 3.94137 58.0865 6.30884C58.5343 8.67631 59.0716 11.1331 59.2507 11.7585C59.3851 12.3838 59.3403 12.9199 59.1164 12.9199C58.8925 12.9199 58.2208 10.5077 57.6387 7.51491C57.0566 4.56674 56.4297 2.06527 56.2953 1.97593C56.161 1.88659 55.1311 4.12005 54.0116 6.93421L52.0413 12.0265L47.7873 12.0712C45.4588 12.0712 42.5034 12.2498 41.2496 12.4285L38.9659 12.7412L40.4436 8.72097Z" fill="white"/>
</svg>
