<svg width="41" height="41" viewBox="0 0 41 41" fill="none" xmlns="http://www.w3.org/2000/svg">
<path d="M27.4 17.8986V23.6002C27.4 24.1306 27.1893 24.6393 26.8142 25.0144C26.4391 25.3895 25.9304 25.6002 25.4 25.6002H16.6C16.0696 25.6002 15.5609 25.3895 15.1858 25.0144C14.8107 24.6393 14.6 24.1306 14.6 23.6002V17.8986L20.7968 21.545C20.8584 21.5813 20.9285 21.6005 21 21.6005C21.0715 21.6005 21.1416 21.5813 21.2032 21.545L27.4 17.8986ZM25.4 15.2002C25.8921 15.2001 26.367 15.3815 26.7338 15.7096C27.1005 16.0377 27.3335 16.4895 27.388 16.9786L21 20.7362L14.612 16.9786C14.6665 16.4895 14.8995 16.0377 15.2662 15.7096C15.633 15.3815 16.1079 15.2001 16.6 15.2002H25.4Z" fill="white"/>
<circle cx="20.5" cy="20.5" r="19.5" stroke="white" stroke-width="2"/>
</svg>
