<svg width="41" height="41" viewBox="0 0 41 41" fill="none" xmlns="http://www.w3.org/2000/svg">
<circle cx="20.5" cy="20.5" r="19.5" stroke="white" stroke-width="2"/>
<path d="M20.5 13C17.4624 13 15 15.3627 15 18.2773C15 19.2521 15.1988 20.2588 15.7694 20.9844L20.5 27L25.2306 20.9844C25.7488 20.3253 26 19.1602 26 18.2773C26 15.3627 23.5376 13 20.5 13ZM20.5 16.0565C21.7781 16.0565 22.8145 17.051 22.8145 18.2773C22.8145 19.5037 21.7781 20.4982 20.5 20.4982C19.2219 20.4982 18.1855 19.5037 18.1855 18.2773C18.1855 17.051 19.2219 16.0565 20.5 16.0565Z" fill="white"/>
</svg>
