<?xml version="1.0" standalone="no"?>
<!DOCTYPE svg PUBLIC "-//W3C//DTD SVG 20010904//EN"
 "http://www.w3.org/TR/2001/REC-SVG-20010904/DTD/svg10.dtd">
<svg version="1.0" xmlns="http://www.w3.org/2000/svg"
 width="736.000000pt" height="736.000000pt" viewBox="0 0 736.000000 736.000000"
 preserveAspectRatio="xMidYMid meet">
<metadata>
Created by potrace 1.14, written by Peter Selinger 2001-2017
</metadata>
<g transform="translate(0.000000,736.000000) scale(0.100000,-0.100000)"
fill="#000000" stroke="none">
<path d="M4987 6593 c-2 -1 -373 -10 -534 -12 l-51 -1 -18 -47 c-9 -27 -27
-70 -39 -98 -12 -27 -28 -68 -35 -90 -7 -22 -21 -56 -30 -75 -10 -19 -18 -39
-18 -43 0 -7 -14 -48 -32 -92 -5 -11 -20 -51 -34 -90 -32 -89 -105 -290 -191
-522 -37 -100 -65 -186 -63 -190 4 -11 35 -8 183 12 22 3 54 8 70 10 17 2 30
4 30 5 0 0 36 3 80 5 44 3 112 7 150 10 39 3 230 8 425 11 195 3 358 8 362 12
8 9 66 150 68 167 0 3 16 42 35 87 19 45 35 85 35 89 0 4 8 24 17 45 9 22 18
44 19 49 9 38 163 396 217 503 26 54 33 61 43 48 15 -21 125 -483 139 -586 2
-14 9 -47 15 -75 6 -27 13 -57 15 -65 2 -8 11 -44 20 -80 9 -36 18 -76 21 -90
10 -49 56 -180 64 -185 17 -10 27 30 23 85 -3 30 -8 60 -12 65 -5 6 -14 39
-21 75 -6 36 -14 72 -15 80 -7 28 -76 365 -81 390 -6 31 -23 118 -29 145 -16
74 -37 173 -41 190 -3 11 -7 32 -9 48 -2 15 -6 31 -9 35 -2 4 -7 27 -11 51
-13 86 -25 102 -93 119 -34 8 -657 13 -665 5z"/>
<path d="M4426 5143 c-1 -1 -65 -5 -141 -8 -316 -14 -383 -19 -564 -40 -72 -9
-60 -40 34 -84 155 -72 149 -72 261 -20 143 65 449 138 602 142 6 0 12 3 12 7
0 5 -198 8 -204 3z"/>
<path d="M5684 5086 c-17 -8 -34 -23 -37 -35 -6 -25 8 -38 17 -16 8 23 65 44
105 39 19 -3 55 -14 80 -26 25 -12 48 -22 51 -22 3 -1 43 -24 89 -51 125 -75
254 -177 364 -287 54 -54 103 -98 108 -98 18 0 -40 88 -89 138 -70 70 -219
193 -287 239 -66 43 -186 103 -207 103 -8 0 -18 4 -23 9 -18 17 -138 22 -171
7z"/>
<path d="M3320 5023 c-68 -25 -222 -118 -306 -186 -106 -85 -170 -140 -278
-242 -144 -136 -361 -292 -561 -405 -196 -111 -280 -183 -327 -281 -35 -71
-45 -120 -42 -197 4 -94 21 -108 161 -126 246 -31 1241 -26 1492 8 20 3 63 8
96 12 162 17 297 77 396 175 50 50 230 163 383 242 79 41 349 158 376 162 3 1
21 9 40 17 34 16 28 16 -145 18 -309 2 -690 -4 -990 -15 -337 -13 -387 -15
-680 -31 -129 -7 -490 -12 -498 -7 -14 9 43 74 197 228 195 194 331 319 471
433 39 31 72 59 75 62 13 13 79 60 85 60 7 0 71 47 93 68 11 10 10 12 -5 11
-10 0 -25 -3 -33 -6z"/>
<path d="M5575 4748 c-40 -163 -72 -259 -107 -317 -28 -48 -95 -117 -138 -144
-19 -11 -37 -24 -40 -27 -3 -4 -73 -35 -157 -69 -83 -35 -158 -70 -166 -79
-13 -15 -12 -22 10 -57 13 -22 26 -48 30 -57 3 -10 8 -18 12 -18 8 0 36 -55
50 -99 34 -104 -18 -202 -154 -293 -22 -14 -87 -52 -143 -82 -176 -96 -297
-185 -392 -290 -19 -22 -44 -49 -55 -60 -48 -49 -133 -172 -125 -180 25 -25
255 45 435 134 121 60 165 74 198 64 29 -9 21 -68 -23 -162 -109 -232 -263
-343 -571 -412 -52 -12 -110 -23 -129 -26 -19 -2 -48 -6 -65 -8 -16 -3 -61 -8
-100 -11 -38 -4 -86 -8 -105 -10 -304 -37 -1987 -6 -2232 40 -63 12 -142 100
-198 220 -29 64 -76 201 -84 246 -3 19 -8 44 -10 56 -3 11 -8 42 -11 67 -4 26
-11 48 -15 51 -4 3 -15 -37 -23 -88 -14 -89 -16 -317 -3 -379 3 -16 8 -39 11
-53 3 -14 7 -37 11 -52 8 -42 45 -126 64 -146 31 -34 241 -92 473 -132 105
-17 134 -21 237 -30 151 -14 290 -23 475 -30 116 -4 819 -5 950 0 344 11 608
28 815 50 221 24 253 28 485 71 198 36 276 64 298 108 8 17 30 94 48 171 27
116 79 292 106 355 3 8 7 17 8 20 20 58 111 244 154 314 23 36 41 69 41 72 0
2 5 10 10 17 6 7 42 57 81 112 89 126 140 175 232 219 59 28 202 80 252 92 6
2 44 12 85 24 41 12 82 24 90 26 8 2 69 17 135 34 66 17 130 33 143 36 41 8
187 64 214 82 19 12 24 22 18 31 -7 12 -17 12 -67 -2 -32 -9 -71 -19 -88 -22
-71 -12 -162 -27 -190 -30 -16 -2 -48 -6 -70 -9 -42 -6 -64 -9 -160 -21 -70
-9 -81 -10 -200 -20 -151 -12 -168 -12 -213 -2 -33 7 -46 15 -53 35 -22 57
-36 295 -39 670 -1 83 -3 152 -5 152 -1 0 -20 -69 -40 -152z"/>
<path d="M4309 4795 c-64 -23 -112 -70 -146 -144 -34 -71 -27 -133 17 -173 35
-33 54 -34 97 -10 35 19 111 87 131 118 49 75 60 160 24 196 -25 25 -73 30
-123 13z"/>
<path d="M3136 4696 c-50 -30 -95 -95 -102 -147 -5 -39 -3 -47 21 -72 15 -15
34 -27 42 -27 45 0 105 62 165 170 26 47 24 89 -4 91 -69 7 -90 4 -122 -15z"/>
<path d="M6648 3985 c-2 -2 -16 -5 -33 -8 -97 -16 -188 -48 -227 -80 -27 -22
-22 -28 20 -23 71 10 117 17 141 21 13 2 58 7 100 10 120 10 163 29 141 65 -7
11 -132 25 -142 15z"/>
<path d="M6769 3799 c-7 -4 -16 -6 -20 -3 -4 2 -19 0 -33 -6 -44 -16 -136 -33
-244 -45 -26 -3 -63 -8 -82 -10 -33 -5 -136 -12 -320 -20 -268 -12 -349 -36
-460 -135 l-45 -41 35 -30 c58 -51 73 -63 130 -109 47 -39 133 -123 166 -163
46 -55 99 -191 149 -382 15 -55 28 -107 30 -115 3 -8 8 -31 13 -51 5 -20 12
-41 16 -47 6 -10 92 -9 276 4 133 9 340 9 371 1 34 -9 40 -26 26 -72 -9 -29
-8 -38 3 -45 8 -5 17 -7 21 -4 14 8 38 103 54 204 16 111 18 123 36 210 6 30
12 60 13 67 1 7 5 16 9 19 4 4 7 15 7 25 0 10 11 53 25 96 13 43 25 83 25 88
1 6 8 17 15 26 8 8 16 25 18 36 2 12 19 45 38 73 26 38 43 53 72 61 20 5 37
13 37 17 0 4 -12 21 -26 37 -67 77 -92 113 -103 147 -14 43 -78 118 -125 147
-36 22 -106 34 -127 20z"/>
<path d="M4262 3459 c-9 -4 -35 -9 -57 -12 -22 -4 -49 -8 -60 -10 -11 -3 -41
-7 -66 -11 -25 -4 -57 -9 -70 -11 -13 -2 -53 -6 -89 -9 -36 -4 -81 -8 -100
-11 -69 -8 -194 -18 -410 -30 -411 -25 -991 -24 -1325 0 -38 3 -99 7 -135 10
-36 2 -65 5 -65 5 0 1 -89 4 -198 6 l-197 4 -11 -27 c-11 -28 -7 -179 6 -238
19 -90 91 -137 250 -161 28 -4 55 -8 60 -9 6 -1 43 -5 84 -9 41 -4 92 -9 115
-11 102 -10 177 -16 256 -21 47 -3 101 -7 120 -9 212 -23 723 -22 1050 0 112
8 413 25 505 29 l40 2 60 112 c57 108 143 233 203 297 15 17 47 51 71 77 l43
47 -31 -2 c-18 -1 -40 -5 -49 -8z"/>
<path d="M5505 3340 c-7 -11 31 -57 90 -110 135 -121 197 -202 262 -340 64
-136 82 -260 60 -392 -11 -60 3 -63 32 -8 17 32 39 136 34 160 0 3 -4 32 -7
65 -22 192 -123 401 -255 522 -70 65 -201 128 -216 103z"/>
<path d="M7169 3005 c-7 -133 -1 -193 15 -166 12 19 10 161 -3 174 -8 8 -11 6
-12 -8z"/>
<path d="M7168 2654 c-3 -5 -6 -29 -7 -54 -3 -58 -18 -125 -36 -160 -18 -34
-80 -90 -103 -91 -9 -1 -51 -3 -92 -4 -94 -2 -196 -13 -235 -25 -16 -5 -46
-11 -66 -14 -20 -3 -42 -7 -50 -10 -8 -2 -27 -7 -42 -10 l-28 -7 48 -36 c26
-20 65 -50 85 -66 48 -38 134 -68 164 -57 12 5 24 6 27 3 8 -7 178 27 209 43
38 20 74 70 93 134 9 30 19 62 23 70 3 8 7 28 9 45 3 16 8 36 12 45 19 39 8
230 -11 194z"/>
<path d="M6528 2504 c-2 -1 -34 -5 -71 -9 -112 -9 -284 -38 -322 -54 -11 -5
-35 -15 -53 -21 -54 -21 -47 -30 20 -25 84 6 123 13 188 31 30 8 64 16 75 18
11 2 40 9 65 16 59 16 80 21 113 27 35 7 44 21 12 21 -13 0 -26 -2 -27 -4z"/>
<path d="M1457 2271 c-10 -4 -18 -10 -18 -14 3 -33 98 -162 188 -252 111 -113
190 -149 318 -146 48 1 145 13 160 21 3 1 8 3 13 4 34 8 95 34 142 62 66 38
232 193 210 195 -48 3 -148 16 -190 23 -14 3 -50 7 -80 10 -30 4 -64 8 -75 10
-11 2 -49 7 -85 11 -36 3 -95 11 -133 16 -37 5 -89 11 -115 14 -26 3 -54 8
-62 10 -8 2 -35 7 -60 10 -25 4 -72 13 -105 21 -66 15 -81 16 -108 5z"/>
<path d="M5785 2244 c-16 -13 -35 -28 -41 -33 -24 -19 -112 -55 -169 -68 -117
-27 -233 -13 -368 46 -27 12 -63 24 -80 28 -44 10 -233 9 -282 0 -22 -5 -53
-11 -70 -14 -53 -9 -97 -31 -89 -45 41 -70 137 -166 190 -189 113 -51 426 -39
587 21 133 50 221 114 346 253 31 34 16 35 -24 1z"/>
<path d="M4199 2190 c-38 -11 -121 -21 -214 -26 -44 -2 -89 -6 -100 -8 -11 -3
-27 -5 -35 -5 -29 -2 26 -43 81 -61 102 -33 236 0 310 76 32 34 33 34 8 33
-13 0 -36 -4 -50 -9z"/>
<path d="M3577 1704 c-1 -1 -87 -5 -192 -9 -104 -4 -208 -8 -230 -10 -22 -2
-78 -6 -125 -9 -47 -3 -105 -8 -130 -11 -25 -2 -70 -7 -100 -10 -144 -15 -172
-18 -290 -35 -36 -5 -82 -12 -103 -15 -58 -8 -110 -16 -137 -21 -14 -2 -41 -7
-60 -10 -38 -5 -71 -11 -110 -20 -14 -3 -44 -7 -67 -9 -23 -2 -46 -6 -50 -8
-5 -3 -29 -8 -53 -12 -44 -6 -195 -31 -235 -39 -20 -4 -194 -33 -250 -42 -45
-7 -228 -52 -326 -80 -47 -14 -95 -26 -105 -29 -10 -2 -50 -13 -89 -25 -38
-12 -74 -22 -80 -24 -5 -1 -37 -11 -70 -21 -33 -10 -64 -19 -70 -21 -62 -13
-396 -130 -473 -165 -34 -15 -62 -25 -62 -21 0 4 -4 2 -8 -3 -4 -6 -23 -18
-42 -29 -54 -28 -79 -51 -95 -89 -13 -33 -13 -37 15 -80 16 -25 40 -53 54 -62
31 -21 119 -25 173 -9 24 6 43 11 43 9 0 -4 197 65 278 98 34 14 62 24 62 22
0 -3 12 0 28 6 15 6 47 17 72 24 25 7 109 31 187 54 77 22 156 43 173 46 18 3
40 10 49 14 9 5 30 12 46 15 17 3 95 21 175 41 276 67 588 138 703 159 15 2
35 7 45 10 9 3 35 7 56 11 21 3 48 7 60 10 12 3 32 7 46 9 14 3 34 7 45 9 11
3 42 8 69 11 27 4 52 9 55 10 3 2 26 7 51 10 25 3 54 8 65 10 11 2 49 7 85 11
36 4 67 8 70 10 3 1 41 6 85 10 44 4 94 9 110 10 17 2 77 6 135 10 58 3 139 8
180 11 41 2 199 6 350 9 151 3 275 5 275 6 0 5 427 3 448 -3 15 -3 27 -4 27 0
0 9 138 8 146 -1 3 -3 16 -2 29 3 13 5 25 7 27 4 3 -2 115 -6 249 -9 134 -3
271 -7 304 -9 33 -3 103 -7 155 -11 94 -6 114 -7 240 -19 36 -4 85 -9 110 -11
43 -4 71 -8 158 -21 20 -3 53 -7 72 -10 19 -2 85 -13 145 -24 61 -10 126 -22
145 -25 19 -3 42 -8 50 -10 8 -2 30 -7 49 -10 19 -3 37 -7 40 -9 3 -2 24 -7
45 -10 49 -8 202 -43 464 -107 224 -54 226 -54 296 -69 26 -5 64 -14 85 -19
37 -10 86 -20 132 -26 14 -2 32 1 40 6 21 14 -14 40 -98 74 -37 15 -77 31 -88
36 -68 28 -596 180 -676 194 -18 3 -35 8 -39 10 -3 2 -17 6 -31 9 -13 3 -42
10 -64 15 -190 45 -433 97 -490 106 -11 2 -45 9 -75 15 -30 6 -68 13 -85 15
-16 3 -41 8 -55 10 -14 3 -43 8 -64 10 -22 3 -52 7 -68 10 -15 3 -43 8 -60 11
-18 3 -49 7 -68 9 -19 2 -46 6 -60 9 -14 2 -45 7 -70 10 -25 3 -55 8 -67 10
-12 3 -48 7 -80 11 -32 3 -71 8 -88 10 -16 3 -55 7 -85 10 -30 2 -64 6 -75 9
-11 2 -58 7 -105 11 -47 3 -103 8 -125 10 -157 15 -284 22 -515 30 -172 7
-510 12 -513 9z"/>
</g>
</svg>
