<svg width="23" height="21" viewBox="0 0 23 21" fill="none" xmlns="http://www.w3.org/2000/svg">
<path d="M10.5975 0.891365C10.9597 0.132243 12.0403 0.132244 12.4025 0.891366L14.8664 6.05494C15.0122 6.36044 15.3027 6.57146 15.6383 6.6157L21.3105 7.36341C22.1444 7.47333 22.4783 8.50101 21.8683 9.08009L17.7189 13.0191C17.4733 13.2521 17.3624 13.5936 17.424 13.9264L18.4657 19.5521C18.6189 20.3791 17.7447 21.0143 17.0054 20.6131L11.977 17.8839C11.6795 17.7224 11.3205 17.7224 11.023 17.8839L5.99455 20.6131C5.2553 21.0143 4.38111 20.3791 4.53425 19.5521L5.57596 13.9264C5.63759 13.5936 5.52665 13.2521 5.28115 13.0191L1.1317 9.08009C0.521665 8.50101 0.855578 7.47333 1.68948 7.36341L7.36173 6.6157C7.69733 6.57146 7.98777 6.36044 8.13355 6.05494L10.5975 0.891365Z" fill="#3A6CF4"/>
</svg>
