<svg width="41" height="41" viewBox="0 0 41 41" fill="none" xmlns="http://www.w3.org/2000/svg">
<circle cx="20.5" cy="20.5" r="19.5" stroke="white" stroke-width="2"/>
<path d="M26.2456 24.2693L24.886 22.9097C24.6399 22.6638 24.3318 22.4893 23.9943 22.4048C23.6569 22.3202 23.3028 22.3289 22.9699 22.4298C22.6369 22.5307 22.3377 22.7201 22.1039 22.9778C21.8702 23.2354 21.7108 23.5517 21.6427 23.8928C19.4007 23.4736 17.2202 21.3021 17.0845 19.3611C17.4656 19.291 17.8164 19.1065 18.0902 18.8322C18.4506 18.4717 18.6531 17.9828 18.6531 17.4731C18.6531 16.9633 18.4506 16.4744 18.0902 16.1139L16.731 14.7543C16.3705 14.3939 15.8816 14.1914 15.3718 14.1914C14.8621 14.1914 14.3732 14.3939 14.0127 14.7543C9.93478 18.8322 22.1677 31.0651 26.2456 26.9872C26.6058 26.6267 26.8081 26.1379 26.8081 25.6283C26.8081 25.1186 26.6058 24.6298 26.2456 24.2693V24.2693Z" fill="white"/>
</svg>
